<?xml version="1.0" standalone="no"?>
<!DOCTYPE svg PUBLIC "-//W3C//DTD SVG 20010904//EN"
 "http://www.w3.org/TR/2001/REC-SVG-20010904/DTD/svg10.dtd">
<svg version="1.0" xmlns="http://www.w3.org/2000/svg"
 width="275.000000pt" height="183.000000pt" viewBox="0 0 275.000000 183.000000"
 preserveAspectRatio="xMidYMid meet">
<metadata>
Created by potrace 1.15, written by Peter Selinger 2001-2017
</metadata>
<g transform="translate(0.000000,183.000000) scale(0.100000,-0.100000)"
fill="#000000" stroke="none">
<path d="M0 1765 c0 -72 -2 -70 77 -65 l32 1 3 -127 c2 -78 -1 -128 -7 -130
-32 -10 -81 -11 -92 -2 -10 8 -13 3 -13 -25 0 -19 6 -38 13 -41 9 -5 9 -7 -1
-12 -15 -7 -18 -389 -2 -399 10 -6 27 50 22 69 -4 11 18 26 37 26 10 0 12 -10
8 -40 -3 -21 -1 -40 3 -42 5 -2 2 -18 -6 -36 -8 -19 -18 -31 -24 -27 -6 4 -9
12 -7 19 3 7 -5 13 -19 14 l-24 2 0 -475 0 -475 1375 0 1375 0 0 470 0 470
-182 1 c-101 1 -190 3 -198 4 -8 1 -39 3 -67 4 -29 0 -53 5 -53 10 0 11 356 8
367 -2 11 -11 41 -8 47 6 5 10 7 10 12 0 3 -7 21 -13 40 -13 l34 0 0 110 c0
93 -2 110 -16 110 -8 0 -12 -5 -9 -10 3 -5 1 -10 -4 -10 -6 0 -11 5 -11 10 0
17 -68 12 -78 -6 -8 -14 -10 -14 -22 1 -7 8 -10 19 -6 22 4 4 11 1 16 -7 7
-10 10 -11 10 -2 0 8 19 12 60 12 l60 0 0 44 c0 34 -4 46 -17 49 -17 4 -17 5
0 6 16 1 17 21 17 276 l0 275 -117 0 c-88 -1 -123 -4 -137 -15 -19 -14 -19
-15 7 -15 49 0 28 -19 -25 -23 -51 -3 -51 -3 13 -5 l65 -2 3 -44 2 -45 -58 -4
c-48 -3 -44 -4 26 -5 l84 -2 -7 -31 c-3 -17 -6 -37 -6 -45 0 -7 -10 -15 -22
-17 -13 -2 -4 -5 20 -6 23 0 42 -5 42 -11 0 -5 -6 -10 -12 -10 -9 0 -8 -4 2
-10 13 -8 13 -11 1 -19 -11 -7 -8 -11 10 -17 23 -8 22 -9 -11 -15 -29 -5 -24
-7 30 -9 36 -1 56 -5 45 -7 -34 -9 -46 -23 -34 -44 8 -16 6 -19 -13 -20 -22
-1 -22 -1 2 -9 22 -7 20 -8 -14 -9 -22 -1 -36 -4 -32 -8 3 -4 27 -6 51 -4 26
1 45 -2 45 -9 0 -5 -10 -10 -22 -10 -21 -1 -21 -2 -5 -11 9 -5 22 -7 27 -4 6
3 10 -3 10 -14 0 -24 -10 -27 -29 -8 -10 10 -11 9 -7 -3 4 -10 -5 -21 -26 -33
-21 -12 -34 -15 -36 -8 -5 15 -42 14 -42 -1 0 -8 -3 -9 -8 -3 -11 15 -32 17
-48 4 -10 -8 -14 -8 -14 0 0 15 -33 14 -48 -1 -9 -9 -12 -9 -12 0 0 16 -37 15
-44 0 -5 -10 -7 -10 -12 0 -9 20 -44 14 -53 -10 l-8 -23 -7 23 c-4 12 -12 22
-17 22 -5 0 -9 9 -9 20 0 20 -6 20 -282 17 -184 -1 -281 -5 -278 -12 2 -5 10
-9 16 -7 8 1 12 -10 11 -32 -1 -33 -2 -34 -31 -29 -39 7 -46 13 -17 13 17 0
22 4 17 16 -3 9 -6 18 -6 20 0 13 -49 1 -55 -13 -5 -16 -8 -15 -25 7 -16 20
-22 23 -37 14 -10 -6 -19 -23 -21 -38 -2 -14 -8 -26 -13 -26 -5 0 -9 6 -7 13
4 23 -13 57 -29 57 -9 0 -25 -7 -35 -16 -16 -16 -18 -16 -24 0 -3 9 -16 16
-29 16 -23 0 -35 -17 -35 -51 0 -10 -4 -19 -10 -19 -5 0 -10 9 -10 19 0 34
-12 51 -35 51 -23 0 -35 -17 -35 -51 0 -10 -5 -19 -11 -19 -6 0 -8 8 -4 19 9
30 -5 51 -36 51 -24 0 -29 -5 -38 -37 -18 -74 -19 -83 -10 -83 14 0 11 -20 -6
-36 -8 -9 -15 -24 -15 -35 0 -17 -3 -18 -20 -7 -15 10 -26 10 -53 0 -44 -16
-47 -15 -47 7 0 22 -20 32 -50 24 -20 -5 -21 -3 -15 18 8 25 24 41 36 34 15
-10 59 45 59 73 0 34 -10 40 -62 36 -28 -2 -38 1 -38 11 0 11 -12 15 -42 16
-24 1 -47 1 -52 0 -5 -1 -22 1 -38 5 l-30 6 4 244 c3 212 1 244 -12 244 -12 0
-14 -11 -13 -47 2 -27 6 -135 9 -240 l7 -193 -29 -2 c-43 -2 -51 -2 -159 12
-99 13 -152 18 -230 23 -28 1 -40 7 -40 17 0 11 9 14 33 12 17 -1 31 1 31 5
-3 19 2 33 11 33 6 0 10 -7 10 -15 0 -8 3 -15 8 -15 4 0 9 92 10 205 l4 205
-251 0 -251 0 0 -65z m1746 -587 c2 -2 0 -17 -5 -34 -7 -29 -8 -29 -20 -6 -14
27 -55 30 -71 5 -10 -17 -10 -17 -20 0 -6 9 -22 17 -35 17 -13 0 -29 -8 -35
-17 -10 -17 -10 -17 -20 0 -7 10 -23 17 -39 17 -18 0 -31 -7 -36 -17 -6 -16
-8 -16 -18 -2 -15 20 -67 32 -60 13 2 -6 0 -15 -6 -19 -6 -3 -14 1 -17 9 -7
19 -60 22 -68 4 -3 -9 -9 -8 -20 6 -8 10 -13 23 -10 27 5 8 472 5 480 -3z
m-536 -130 c0 -15 43 -78 53 -78 4 0 7 13 7 29 l0 29 235 -2 235 -1 0 -56 c0
-48 -3 -57 -19 -62 -25 -6 -31 0 -31 32 l0 26 -23 -29 c-21 -26 -28 -28 -87
-27 -35 0 -69 -4 -76 -10 -8 -6 -19 -7 -26 -2 -7 4 -56 8 -108 8 l-95 0 -5 30
c-5 25 -7 27 -13 12 -4 -10 -7 -32 -7 -48 0 -19 -5 -29 -15 -29 -8 0 -15 9
-15 20 0 17 -3 18 -26 10 -35 -14 -33 -14 -48 23 -28 67 -28 71 4 85 17 8 33
24 36 38 6 23 24 24 24 2z m550 -243 c0 -9 -10 -15 -22 -16 l-23 -1 23 -6 c13
-4 23 -11 22 -17 -2 -12 31 -24 48 -18 16 7 15 23 -2 23 -7 0 -20 8 -27 18 -7
9 -9 14 -5 10 5 -4 16 -2 24 4 22 19 45 15 65 -10 21 -25 16 -52 -8 -52 -9 0
-13 5 -10 10 3 6 1 10 -4 10 -16 0 -13 -18 5 -28 14 -8 14 -13 -2 -51 -16 -40
-16 -42 2 -59 11 -9 24 -26 30 -37 13 -23 31 -21 26 2 -4 19 -31 48 -52 56
-13 5 -13 6 0 6 9 1 24 14 33 31 16 26 23 29 63 28 32 0 42 -4 35 -12 -5 -6
-13 -39 -16 -73 -7 -59 -7 -61 16 -65 21 -3 24 -7 21 -43 -2 -22 -9 -44 -16
-50 -7 -5 -11 -16 -8 -24 3 -9 0 -11 -9 -7 -8 4 -6 1 5 -8 30 -24 11 -33 -80
-38 -59 -3 -88 -9 -94 -19 -11 -17 10 -27 56 -28 35 -1 74 -46 73 -83 0 -22
-1 -22 -8 -3 -8 19 -8 19 -15 -2 -9 -27 -19 -29 -36 -8 -9 11 -22 14 -46 9
-22 -4 -40 -2 -50 7 -13 11 -11 14 18 28 l33 16 -58 3 c-51 3 -57 5 -46 18 14
17 4 32 -26 37 -11 1 -27 7 -35 12 -8 6 -37 15 -65 21 l-50 11 54 16 c30 9 68
18 85 18 21 1 15 4 -19 9 -36 5 -60 16 -81 36 -49 47 -73 64 -92 65 -13 0 -12
2 6 9 27 12 28 27 2 35 -11 3 -20 13 -20 21 0 10 14 14 53 15 28 1 41 3 27 6
-51 8 -72 14 -66 20 3 3 1 12 -5 19 -8 10 -5 19 13 37 24 24 38 28 98 28 31
-1 33 1 18 13 -10 7 -18 18 -18 25 0 6 -4 11 -10 11 -5 0 -7 -7 -4 -15 4 -9 0
-15 -10 -15 -9 0 -16 4 -16 8 0 20 28 32 75 33 27 1 64 5 80 9 44 11 45 11 45
-5z"/>
</g>
</svg>
